<?xml version="1.0" encoding="UTF-8" standalone="no"?>
<svg
   width="90.04"
   height="90.04"
   fill-rule="evenodd"
   image-rendering="optimizeQuality"
   shape-rendering="geometricPrecision"
   text-rendering="geometricPrecision"
   viewBox="0 0 15.9763 15.9763"
   version="1.1"
   id="svg30"
   sodipodi:docname="cpu-open.svg"
   xml:space="preserve"
   inkscape:version="1.3.2 (091e20e, 2023-11-25)"
   xmlns:inkscape="http://www.inkscape.org/namespaces/inkscape"
   xmlns:sodipodi="http://sodipodi.sourceforge.net/DTD/sodipodi-0.dtd"
   xmlns="http://www.w3.org/2000/svg"
   xmlns:svg="http://www.w3.org/2000/svg"><defs
     id="defs30" /><sodipodi:namedview
     id="namedview30"
     pagecolor="#ffffff"
     bordercolor="#000000"
     borderopacity="0.25"
     inkscape:showpageshadow="2"
     inkscape:pageopacity="0.0"
     inkscape:pagecheckerboard="0"
     inkscape:deskcolor="#d1d1d1"
     inkscape:zoom="17.637746"
     inkscape:cx="43.911507"
     inkscape:cy="50.374918"
     inkscape:window-width="1800"
     inkscape:window-height="1030"
     inkscape:window-x="0"
     inkscape:window-y="44"
     inkscape:window-maximized="1"
     inkscape:current-layer="svg30" /><path
     d="m4.2159 1.701h7.5445c1.3852 0 2.5148 1.1297 2.5148 2.5148v7.5445c0 1.3852-1.1297 2.5148-2.5148 2.5148h-7.5445c-1.3852 0-2.5148-1.1297-2.5148-2.5148v-7.5445c0-1.3852 1.1297-2.5148 2.5148-2.5148z"
     fill="#4d4948"
     stroke="#4d4948"
     stroke-width=".22175"
     id="path1" /><path
     d="m5.4733 4.2159h5.0297c0.69259 0 1.2574 0.56483 1.2574 1.2574v5.0297c0 0.69259-0.56483 1.2574-1.2574 1.2574h-5.0297c-0.69259 0-1.2574-0.56483-1.2574-1.2574v-5.0297c0-0.69259 0.56483-1.2574 1.2574-1.2574z"
     fill="#b6ddc7"
     stroke="#00923f"
     stroke-width=".88717"
     id="path2" /><path
     d="m1.701 10.503h-1.2574"
     fill="none"
     stroke="#e77817"
     stroke-linecap="round"
     stroke-width=".88717"
     id="path3" /><path
     d="m1.701 9.2446h-1.2574"
     fill="none"
     stroke="#e77817"
     stroke-linecap="round"
     stroke-width=".88717"
     id="path4" /><path
     d="m1.701 6.7307h-1.2574"
     fill="none"
     stroke="#e77817"
     stroke-linecap="round"
     stroke-width=".88717"
     id="path5" /><path
     d="m1.701 7.9871h-1.2574"
     fill="none"
     stroke="#e77817"
     stroke-linecap="round"
     stroke-width=".88717"
     id="path6" /><path
     d="m1.701 5.4723h-1.2574"
     fill="none"
     stroke="#e77817"
     stroke-linecap="round"
     stroke-width=".88717"
     id="path7" /><path
     d="m1.701 4.2149h-1.2574"
     fill="none"
     stroke="#e77817"
     stroke-linecap="round"
     stroke-width=".88717"
     id="path8" /><path
     d="m1.701 11.76h-1.2574"
     fill="none"
     stroke="#e77817"
     stroke-linecap="round"
     stroke-width=".88717"
     id="path9" /><path
     d="m15.533 10.503h-1.2575"
     fill="none"
     stroke="#e77817"
     stroke-linecap="round"
     stroke-width=".88717"
     id="path10" /><path
     d="m15.533 9.2446h-1.2575"
     fill="none"
     stroke="#e77817"
     stroke-linecap="round"
     stroke-width=".88717"
     id="path11" /><path
     d="m15.533 6.7307h-1.2575"
     fill="none"
     stroke="#e77817"
     stroke-linecap="round"
     stroke-width=".88717"
     id="path12" /><path
     d="m15.533 7.9871h-1.2575"
     fill="none"
     stroke="#e77817"
     stroke-linecap="round"
     stroke-width=".88717"
     id="path13" /><path
     d="m15.533 5.4723h-1.2575"
     fill="none"
     stroke="#e77817"
     stroke-linecap="round"
     stroke-width=".88717"
     id="path14" /><path
     d="m15.533 4.2149h-1.2575"
     fill="none"
     stroke="#e77817"
     stroke-linecap="round"
     stroke-width=".88717"
     id="path15" /><path
     d="m15.533 11.76h-1.2575"
     fill="none"
     stroke="#e77817"
     stroke-linecap="round"
     stroke-width=".88717"
     id="path16" /><path
     d="m5.4733 15.533v-1.2575"
     fill="none"
     stroke="#e77817"
     stroke-linecap="round"
     stroke-width=".88717"
     id="path17" /><path
     d="m6.7317 15.533v-1.2575"
     fill="none"
     stroke="#e77817"
     stroke-linecap="round"
     stroke-width=".88717"
     id="path18" /><path
     d="m9.2456 15.533v-1.2575"
     fill="none"
     stroke="#e77817"
     stroke-linecap="round"
     stroke-width=".88717"
     id="path19" /><path
     d="m7.9891 15.533v-1.2575"
     fill="none"
     stroke="#e77817"
     stroke-linecap="round"
     stroke-width=".88717"
     id="path20" /><path
     d="m10.504 15.533v-1.2575"
     fill="none"
     stroke="#e77817"
     stroke-linecap="round"
     stroke-width=".88717"
     id="path21" /><path
     d="m11.761 15.533v-1.2575"
     fill="none"
     stroke="#e77817"
     stroke-linecap="round"
     stroke-width=".88717"
     id="path22" /><path
     d="m4.2164 15.533v-1.2575"
     fill="none"
     stroke="#e77817"
     stroke-linecap="round"
     stroke-width=".88717"
     id="path23" /><path
     d="m5.4728 1.701v-1.2574"
     fill="none"
     stroke="#e77817"
     stroke-linecap="round"
     stroke-width=".88717"
     id="path24" /><path
     d="m6.7312 1.701v-1.2574"
     fill="none"
     stroke="#e77817"
     stroke-linecap="round"
     stroke-width=".88717"
     id="path25" /><path
     d="m9.245 1.701v-1.2574"
     fill="none"
     stroke="#e77817"
     stroke-linecap="round"
     stroke-width=".88717"
     id="path26" /><path
     d="m7.9886 1.701v-1.2574"
     fill="none"
     stroke="#e77817"
     stroke-linecap="round"
     stroke-width=".88717"
     id="path27" /><path
     d="m10.504 1.701v-1.2574"
     fill="none"
     stroke="#e77817"
     stroke-linecap="round"
     stroke-width=".88717"
     id="path28" /><path
     d="m11.761 1.701v-1.2574"
     fill="none"
     stroke="#e77817"
     stroke-linecap="round"
     stroke-width=".88717"
     id="path29" /><path
     d="m4.2159 1.701v-1.2574"
     fill="none"
     stroke="#e77817"
     stroke-linecap="round"
     stroke-width=".88717"
     id="path30" /><path
     d="m 8.875328,7.2118694 c 0,-0.3063536 0.2481329,-0.5544864 0.5544865,-0.5544864 0.3063533,0 0.554486,0.2481328 0.554486,0.5544864 V 7.544561 c 0,0.12268 0.099113,0.2217944 0.2217935,0.2217944 0.122681,0 0.221796,-0.099114 0.221796,-0.2217944 V 7.2118694 c 0,-0.5510208 -0.4470555,-0.9980752 -0.9980755,-0.9980752 -0.5510209,0 -0.9980753,0.4470544 -0.9980753,0.9980752 V 7.544561 H 6.8791776 c -0.244667,0 -0.443589,0.198922 -0.443589,0.4435892 V 9.318917 c 0,0.2446668 0.198922,0.4435888 0.443589,0.4435888 h 2.2179449 c 0.2446674,0 0.4435893,-0.198922 0.4435893,-0.4435888 V 7.9881502 C 9.5407118,7.743483 9.3417899,7.544561 9.0971225,7.544561 H 8.875328 Z"
     id="path1-4"
     style="stroke-width:0.00693107;fill:#008000" /></svg>
