<svg width="307" height="307" viewBox="0 0 307 307" fill="none" xmlns="http://www.w3.org/2000/svg">
<g filter="url(#filter0_i_2908_20)">
<path d="M61.0192 54.3461V74.6775L84.1782 61.9859V41.6235C84.1917 40.6771 84.4311 39.7476 84.8765 38.9121C85.3219 38.0766 85.9605 37.3593 86.7394 36.8196L104.698 26.9174C106.126 26.1425 107.275 27.0258 107.275 28.9009V49.2168L130.388 36.4787V16.1628C130.401 15.2164 130.64 14.2869 131.086 13.4514C131.531 12.616 132.17 11.8986 132.949 11.3589L153.5 0V3.44021V67.7815L37.9999 131.426V67.0842C38.0113 66.1357 38.2514 65.2039 38.6999 64.3677C39.1485 63.5315 39.7922 62.8155 40.5766 62.2803L58.5046 52.378C59.9172 51.6032 61.0192 52.4865 61.0192 54.3461Z" fill="#FF5300"/>
<path d="M154.707 68.4454C154.886 68.6054 155.092 68.7519 155.329 68.8819L258.939 125.986C259.27 126.172 259.616 126.324 259.974 126.443L154.707 68.4454ZM221.054 37.4991C221.471 37.9123 221.825 38.3875 222.104 38.9083C222.553 39.7441 222.794 40.6751 222.807 41.6231V61.9854L245.919 74.6778V54.3458C245.919 52.9959 246.524 52.1607 247.396 52.1006L221.054 37.4991ZM174.42 11.6514C175.025 12.1479 175.529 12.7581 175.898 13.4512C176.344 14.2867 176.583 15.2168 176.597 16.1631V36.4786L199.694 49.2169V28.9005C199.694 27.3884 200.441 26.5219 201.479 26.6495L174.42 11.6514Z" fill="#FF5300"/>
<path d="M153.5 67.7816L269 131.426L252.857 149.789L153.5 94.7609V67.7816Z" fill="#FF5300"/>
<mask id="mask0_2908_20" style="mask-type:luminance" maskUnits="userSpaceOnUse" x="54" y="94" width="199" height="213">
<path d="M69.8669 225.954C78.6974 245.405 91.0477 263.062 106.297 278.037C118.994 290.435 132.245 299.392 146.049 304.908C148.382 305.995 150.926 306.559 153.5 306.559C156.075 306.559 158.618 305.995 160.951 304.908C176.68 298.575 191.167 288.379 204.413 274.318C219.205 258.923 230.875 240.816 238.779 220.995C248.237 197.768 253.02 172.909 252.857 147.836C252.905 143.867 251.747 139.977 249.535 136.679C247.363 133.401 244.164 130.932 240.439 129.659L160.951 96.5894C158.618 95.5024 156.075 94.9391 153.5 94.9391C150.926 94.9391 148.382 95.5024 146.049 96.5894L66.5607 129.659C62.8311 130.931 59.6276 133.399 57.4492 136.679C55.244 139.98 54.0865 143.868 54.1275 147.836C54.1275 176.226 59.374 202.265 69.8669 225.954Z" fill="white"/>
</mask>
<g mask="url(#mask0_2908_20)">
<path d="M54.1279 149.789V399.08L153.5 312.254V94.7609L54.1279 149.789Z" fill="#FF5300"/>
</g>
<path d="M216.481 219.337L217.009 196.991C217.242 186.794 211.219 175.606 203.629 172.119C196.039 168.632 189.659 174.118 189.395 184.315L188.883 206.645L216.481 219.337Z" fill="#FF5300"/>
<path d="M153.469 67.7814L268.969 131.425L252.826 149.789L153.469 94.7608V67.7814Z" fill="#FF5300"/>
</g>
<defs>
<filter id="filter0_i_2908_20" x="37.9999" y="0" width="231" height="310.559" filterUnits="userSpaceOnUse" color-interpolation-filters="sRGB">
<feFlood flood-opacity="0" result="BackgroundImageFix"/>
<feBlend mode="normal" in="SourceGraphic" in2="BackgroundImageFix" result="shape"/>
<feColorMatrix in="SourceAlpha" type="matrix" values="0 0 0 0 0 0 0 0 0 0 0 0 0 0 0 0 0 0 127 0" result="hardAlpha"/>
<feOffset dy="4"/>
<feGaussianBlur stdDeviation="2"/>
<feComposite in2="hardAlpha" operator="arithmetic" k2="-1" k3="1"/>
<feColorMatrix type="matrix" values="0 0 0 0 0 0 0 0 0 0 0 0 0 0 0 0 0 0 0.25 0"/>
<feBlend mode="normal" in2="shape" result="effect1_innerShadow_2908_20"/>
</filter>
</defs>
</svg>
